<svg xmlns="http://www.w3.org/2000/svg" width="16" height="16" fill="none" viewBox="0 0 16 16"><g clip-path="url(#a)"><path fill="#FFE17F" d="M14 16H2a2 2 0 0 1-2-2V2C0 .9.9 0 2 0h12a2 2 0 0 1 2 2v12a2 2 0 0 1-2 2Z"/><path fill="#444" d="M12.7 1.6v11.8H9.9v-.8c-.6.6-1.5 1-2.8 1-2.4 0-4.4-1.9-4.4-4.4 0-2.5 2-4.4 4.4-4.4 1.2 0 2.2.4 2.8 1V1.6h2.8ZM9.9 9.2c0-1.3-.9-2.1-2.2-2.1-1.3 0-2.2.8-2.2 2.1s.9 2.1 2.2 2.1c1.3-.1 2.2-.9 2.2-2.1Z"/></g><defs><clipPath id="a"><path fill="#fff" d="M0 0h16v16H0z"/></clipPath></defs></svg>